# xmcd CD database file
#
# Track frame offsets:
#	150
#	17194
#	34199
#	58054
#	75300
#	90974
#	110774
#	137172
#	155549
#	181123
#	202590
#	213226
#	227850
#
# Disc length: 3127 seconds
#
# Revision: 14
# Processed by: cddbd v1.5.2PL0 Copyright (c) Steve Scherf et al.
# Submitted via: CDex 1.81
#
DISCID=9f0c350d
DTITLE=Bayou Alligators - Girl Without Dancing Shoes
DYEAR=2008
DGENRE=Blues
TTITLE0=What You Gonna Do
TTITLE1=Zydeco Man
TTITLE2=Down in Louisiana
TTITLE3=Girl Without Dancing Shoes
TTITLE4=Come Back
TTITLE5=Little Lady
TTITLE6=Dancing in New Orleans
TTITLE7=Lets Talk About Girls
TTITLE8=Red Hot
TTITLE9=Sweet Honey
TTITLE10=Come on Baby
TTITLE11=Ameland Cowboy
TTITLE12=Think about it
EXTD=YEAR: 2008
EXTT0=
EXTT1=
EXTT2=
EXTT3=
EXTT4=
EXTT5=
EXTT6=
EXTT7=
EXTT8=
EXTT9=
EXTT10=
EXTT11=
EXTT12=
PLAYORDER=
